#!OML:ASF H:\GeneralSubjects\Female5\Project 1\Capture day 1\Session 1\Female5.ASF
:FULLY-SPECIFIED
:DEGREES
423
root 9.15789 15.7802 3.15967 781.507 265.361 -52.9403
lowerback 15.0894 -1.62087 -14.9258
upperback -10.6978 -5.14653 6.78346
thorax -19.0187 0.366693 18.3996
lowerneck -13.0459 3.43466 -0.385882
upperneck 41.9804 5.95847 -7.33352
head 18.1896 0.424967 -2.57721
rclavicle -4.9895e-014 9.54166e-015
rhumerus -59.5779 33.2159 -83.9785
rradius 34.3907
rwrist -15.7266
rhand -22.6128 -22.9695
rfingers 7.12502
rthumb 3.81701 -52.915
lclavicle -4.9895e-014 9.54166e-015
lhumerus -46.1443 6.41151 79.1232
lradius 50.245
lwrist -3.64236
lhand -26.4213 27.5133
lfingers 7.12502
lthumb 0.138815 57.493
rfemur -29.8253 20.0857 10.7803
rtibia -1.58652
rfoot -40.0888 -23.0913
rtoes 14.7889
lfemur 10.0031 -20.9427 -41.2815
ltibia 1.93714
lfoot -30.6815 -4.4649
ltoes -25.5127
424
root 8.79171 15.7241 3.08132 791.062 265.372 -62.2124
lowerback 14.8867 -1.83268 -15.1629
upperback -10.9172 -5.51131 6.70059
thorax -18.9963 0.233148 18.5285
lowerneck -13.3508 3.41476 -0.625406
upperneck 42.3507 5.91419 -7.07671
head 18.4726 0.377668 -2.44535
rclavicle 4.17448e-015 -4.77083e-015
rhumerus -60.3576 33.1027 -84.1169
rradius 34.1032
rwrist -15.2452
rhand -22.4711 -22.98
rfingers 7.12502
rthumb 3.95388 -52.9231
lclavicle 4.17448e-015 -4.77083e-015
lhumerus -45.7933 5.92201 79.4846
lradius 50.7696
lwrist -3.96759
lhand -26.8668 27.5544
lfingers 7.12502
lthumb -0.291426 57.5339
rfemur -30.4804 20.8777 9.76234
rtibia -4.53596
rfoot -41.3206 -17.5386
rtoes 35.1047
lfemur 11.4645 -20.7146 -41.9266
ltibia 1.38051
lfoot -30.2435 -5.00354
ltoes -27.792
425
root 8.41603 15.6606 3.0022 800.419 265.533 -71.4342
lowerback 14.8346 -2.0514 -15.0409
upperback -11.0846 -5.80375 6.67385
thorax -19.0587 0.0976177 18.5076
lowerneck -13.63 3.39101 -0.965757
upperneck 42.5822 5.88327 -6.75718
head 18.6585 0.338601 -2.24952
rclavicle -6.10269e-014 3.18055e-015
rhumerus -60.989 32.9624 -84.1854
rradius 33.7062
rwrist -14.8945
rhand -22.2352 -23.0104
rfingers 7.12502
rthumb 4.18165 -52.9491
lclavicle -6.10269e-014 3.18055e-015
lhumerus -45.5266 5.54534 79.878
lradius 51.1044
lwrist -4.26637
lhand -27.5754 27.597
lfingers 7.12502
lthumb -0.975813 57.5745
rfemur -31.0439 21.6552 9.08036
rtibia -4.02687
rfoot -31.9026 -29.5985
rtoes 8.53356
lfemur 13.0982 -21.5629 -42.5096
ltibia 1.69808
lfoot -30.9312 -5.75741
ltoes -29.1178
426
root 8.02792 15.5919 2.92175 809.557 265.802 -80.6014
lowerback 14.8173 -2.25888 -14.6619
upperback -11.212 -6.00846 6.70463
thorax -19.1487 -0.0276761 18.3862
lowerneck -13.7414 3.33643 -1.2651
upperneck 42.6636 5.87824 -6.68037
head 18.7255 0.290459 -2.16451
rclavicle -1.80894e-014 -3.97569e-014
rhumerus -61.6346 32.8832 -84.3128
rradius 33.2455
rwrist -14.4531
rhand -21.9506 -22.8286
rfingers 7.12502
rthumb 4.45647 -52.7617
lclavicle -1.80894e-014 -3.97569e-014
lhumerus -45.463 5.37636 80.2141
lradius 51.3662
lwrist -4.68708
lhand -27.6417 27.7026
lfingers 7.12502
lthumb -1.0399 57.6798
rfemur -31.4128 22.5188 8.72144
rtibia -3.33253
rfoot -29.5054 -30.2167
rtoes 5.09842
lfemur 14.3845 -21.4037 -42.4933
ltibia 2.60314
lfoot -30.5803 -6.87084
ltoes -26.8477
427
root 7.62776 15.5253 2.83456 817.879 266 -89.0188
lowerback 14.6982 -2.42707 -14.3584
upperback -11.3436 -6.16183 6.75534
thorax -19.196 -0.124775 18.3111
lowerneck -13.7574 3.28969 -1.40958
upperneck 42.8397 5.85477 -6.70174
head 18.8379 0.239006 -2.16742
rclavicle 1.53064e-014 -1.59028e-014
rhumerus -62.4342 32.8686 -84.59
rradius 32.8027
rwrist -14.0631
rhand -21.6241 -22.572
rfingers 7.12502
rthumb 4.7717 -52.4983
lclavicle 1.53064e-014 -1.59028e-014
lhumerus -45.6631 5.31935 80.5177
lradius 51.597
lwrist -5.03003
lhand -27.3367 27.9175
lfingers 7.12502
lthumb -0.74533 57.896
rfemur -31.6462 23.6106 8.5041
rtibia -0.945344
rfoot -31.9467 -26.6463
rtoes 14.4657
lfemur 15.3843 -20.6215 -42.0855
ltibia 3.80737
lfoot -29.4487 -7.98768
ltoes -24.6942
428
root 7.21503 15.4654 2.73954 824.309 266.034 -95.5507
lowerback 14.4884 -2.5511 -14.2013
upperback -11.4761 -6.28399 6.76532
thorax -19.1906 -0.200147 18.2498
lowerneck -13.7524 3.29557 -1.30172
upperneck 42.9592 5.87462 -6.81391
head 18.9266 0.239818 -2.24821
rclavicle 2.70347e-014 2.8625e-014
rhumerus -63.1015 32.7971 -84.8245
rradius 32.3521
rwrist -13.9117
rhand -21.2549 -22.6607
rfingers 7.12502
rthumb 5.12827 -52.5786
lclavicle 2.70347e-014 2.8625e-014
lhumerus -46.1484 5.22656 80.7987
lradius 51.8007
lwrist -5.06706
lhand -27.2993 27.7359
lfingers 7.12502
lthumb -0.709152 57.7144
rfemur -32.3416 24.8965 8.18426
rtibia 1.82583
rfoot -29.7137 -28.6333
rtoes 10.3885
lfemur 16.1244 -19.6204 -41.541
ltibia 5.33778
lfoot -27.9387 -8.85746
ltoes -24.9703
429
root 6.79427 15.4124 2.64211 829.247 266.013 -100.665
lowerback 14.3474 -2.62803 -14.067
upperback -11.5944 -6.35687 6.7562
thorax -19.2341 -0.243944 18.175
lowerneck -13.652 3.23983 -1.68643
upperneck 43.0382 5.82055 -6.61357
head 18.918 0.175048 -2.09672
rclavicle -4.81059e-014 -1.90833e-014
rhumerus -63.5686 32.6002 -84.8929
rradius 31.9234
rwrist -13.8544
rhand -21.4867 -22.6001
rfingers 7.12502
rthumb 4.90445 -52.5233
lclavicle -4.81059e-014 -1.90833e-014
lhumerus -46.8026 5.3872 80.9794
lradius 51.7576
lwrist -5.09862
lhand -27.3874 27.1669
lfingers 7.12502
lthumb -0.794272 57.1452
rfemur -31.2281 22.2708 10.6416
rtibia 3.21465
rfoot -22.2136 -31.1359
rtoes -2.54684
lfemur 16.5439 -18.4703 -40.8615
ltibia 7.61199
lfoot -26.123 -9.42869
ltoes -24.8396
430
root 6.37268 15.3723 2.5476 833.401 266.295 -105.129
lowerback 14.2912 -2.64716 -13.6695
upperback -11.6181 -6.27127 6.83756
thorax -19.294 -0.246779 18.0214
lowerneck -13.6465 3.23139 -1.94694
upperneck 43.246 5.86556 -6.56709
head 19.0419 0.137607 -2.0348
rclavicle 5.52621e-014 -1.43125e-014
rhumerus -63.6824 32.3304 -84.756
rradius 31.3405
rwrist -13.9037
rhand -21.6503 -22.7001
rfingers 7.12502
rthumb 4.74641 -52.6269
lclavicle 5.52621e-014 -1.43125e-014
lhumerus -47.4614 5.97221 81.0715
lradius 51.4035
lwrist -5.18689
lhand -27.025 26.1834
lfingers 7.12502
lthumb -0.4442 56.1627
rfemur -30.1767 19.3605 13.4177
rtibia 4.95662
rfoot -15.5636 -31.6713
rtoes -0.158544
lfemur 16.6596 -17.0587 -39.6975
ltibia 10.4807
lfoot -24.0211 -9.24343
ltoes -24.6257
431
root 5.95528 15.356 2.45735 838.202 267.212 -110.278
lowerback 14.1961 -2.64239 -12.6357
upperback -11.5194 -5.95795 7.07038
thorax -19.3043 -0.241551 17.6
lowerneck -13.5851 3.27101 -1.9078
upperneck 43.2716 6.01358 -6.817
head 19.0711 0.16274 -2.14091
rclavicle -1.78906e-014 -2.54444e-014
rhumerus -63.3611 32.1447 -84.533
rradius 30.541
rwrist -14.0354
rhand -21.2338 -23.4058
rfingers 7.12502
rthumb 5.1486 -53.3232
lclavicle -1.78906e-014 -2.54444e-014
lhumerus -48.1564 6.71204 81.1059
lradius 50.8458
lwrist -5.05118
lhand -26.8697 26.1547
lfingers 7.12502
lthumb -0.294199 56.1342
rfemur -29.6123 15.5957 17.2191
rtibia 8.14772
rfoot -11.3955 -28.9322
rtoes -2.36838
lfemur 16.2445 -15.0624 -37.5041
ltibia 13.7296
lfoot -21.4984 -8.0359
ltoes -25.1432
432
root 5.54873 15.3699 2.37003 849.504 268.616 -121.872
lowerback 14.0488 -2.60378 -11.1477
upperback -11.355 -5.46813 7.41857
thorax -19.2856 -0.222008 16.9854
lowerneck -13.5424 3.35417 -1.85245
upperneck 43.2876 6.17746 -6.93958
head 19.0912 0.217465 -2.18237
rclavicle 1.31198e-014 9.54166e-015
rhumerus -62.8391 32.1522 -84.4912
rradius 29.6659
rwrist -14.2236
rhand -21.0657 -23.8551
rfingers 7.12502
rthumb 5.31093 -53.7685
lclavicle 1.31198e-014 9.54166e-015
lhumerus -48.9639 7.44272 81.103
lradius 50.1053
lwrist -4.71403
lhand -27.3449 27.3924
lfingers 7.12502
lthumb -0.753195 57.3708
rfemur -29.3325 12.4064 21.2172
rtibia 11.6818
rfoot -7.92853 -24.5904
rtoes -4.63892
lfemur 15.023 -12.3767 -34.3083
ltibia 17.8408
lfoot -18.517 -6.42055
ltoes -25.5503
433
root 5.1546 15.408 2.2831 769.151 270.384 -41.8399
lowerback 14.0008 -2.47864 -9.8057
upperback -11.1581 -4.91075 7.75926
thorax -19.2908 -0.147375 16.4321
lowerneck -13.3149 3.38717 -1.75409
upperneck 43.2103 6.19783 -6.994
head 18.9847 0.241572 -2.21799
rclavicle 3.10104e-014 3.97569e-014
rhumerus -62.0555 32.1534 -84.4781
rradius 28.7288
rwrist -14.2388
rhand -21.1882 -23.9339
rfingers 7.12502
rthumb 5.19267 -53.8503
lclavicle 3.10104e-014 3.97569e-014
lhumerus -49.9002 8.22509 80.9936
lradius 49.149
lwrist -4.39424
lhand -27.3965 27.7952
lfingers 7.12502
lthumb -0.803064 57.7735
rfemur -29.0067 10.0946 24.7015
rtibia 15.0243
rfoot -6.74821 -20.5238
rtoes -9.47465
lfemur 13.1672 -9.22636 -30.823
ltibia 23.08
lfoot -16.0522 -2.48444
ltoes -24.7513
434
root 4.77413 15.4602 2.19166 829.695 271.476 -102.748
lowerback 14.0615 -2.28497 -8.89519
upperback -10.9213 -4.37538 8.06512
thorax -19.2668 -0.0246273 16.1013
lowerneck -13.0601 3.36783 -1.79176
upperneck 43.1618 6.1068 -6.8981
head 18.866 0.217703 -2.178
rclavicle -1.59028e-014 -2.54444e-014
rhumerus -61.0649 32.3022 -84.4806
rradius 27.9468
rwrist -14.1891
rhand -21.3048 -24.3379
rfingers 7.12502
rthumb 5.08008 -54.257
lclavicle -1.59028e-014 -2.54444e-014
lhumerus -50.8702 9.02535 80.8352
lradius 47.9583
lwrist -4.12199
lhand -26.3901 27.9624
lfingers 7.12502
lthumb 0.168985 57.942
rfemur -27.2274 9.7175 27.2658
rtibia 15.69
rfoot -6.77201 -18.8643
rtoes -13.2632
lfemur 10.8947 -6.1331 -27.6232
ltibia 28.7157
lfoot -14.4552 3.0587
ltoes -24.6975
435
root 4.41113 15.5211 2.09868 839.775 272.474 -113.161
lowerback 14.1939 -2.05893 -8.44328
upperback -10.6927 -3.91679 8.32161
thorax -19.2422 0.129175 16.0135
lowerneck -12.866 3.3621 -1.96419
upperneck 43.2242 6.03752 -6.7002
head 18.8255 0.185111 -2.06791
rclavicle 1.03368e-014 -5.24792e-014
rhumerus -60.1745 32.8233 -84.7064
rradius 27.6142
rwrist -14.3554
rhand -21.469 -25.1087
rfingers 7.12502
rthumb 4.92148 -55.0315
lclavicle 1.03368e-014 -5.24792e-014
lhumerus -51.8348 9.85404 80.7371
lradius 46.7086
lwrist -3.72089
lhand -25.6833 28.9691
lfingers 7.12502
lthumb 0.851606 58.9471
rfemur -25.0752 9.52022 29.2336
rtibia 15.4545
rfoot -7.27843 -17.4361
rtoes -14.0723
lfemur 8.21374 -3.6685 -25.1663
ltibia 35.2284
lfoot -14.2414 8.25924
ltoes -23.9843
436
root 4.05783 15.5845 2.00961 843.614 273.227 -117.412
lowerback 14.5072 -1.83275 -8.23411
upperback -10.4863 -3.53295 8.51599
thorax -19.3271 0.295737 16.0378
lowerneck -12.6152 3.32948 -2.11662
upperneck 43.2939 5.95273 -6.61157
head 18.7828 0.132592 -2.01954
rclavicle 3.69739e-014 -9.54166e-015
rhumerus -59.4019 33.4014 -84.9298
rradius 27.6816
rwrist -14.3199
rhand -21.382 -25.6643
rfingers 7.12502
rthumb 5.00551 -55.5852
lclavicle 3.69739e-014 -9.54166e-015
lhumerus -52.8041 10.641 80.6719
lradius 45.4514
lwrist -3.27253
lhand -25.2413 29.2394
lfingers 7.12502
lthumb 1.27847 59.2153
rfemur -22.4385 9.25655 30.7701
rtibia 14.3893
rfoot -7.74232 -16.2478
rtoes -13.7534
lfemur 5.39946 -1.92992 -23.4665
ltibia 41.61
lfoot -14.8945 13.1158
ltoes -21.3349
